<mxfile host="app.diagrams.net" modified="2022-03-31T03:15:58.845Z" agent="5.0 (X11; Linux x86_64) AppleWebKit/537.36 (KHTML, like Gecko) Chrome/99.0.4844.82 Safari/537.36" etag="ilTfX4vN8hoi1XIUgF0O" version="17.2.6" type="github" pages="2">
  <diagram name="Page-1" id="13e1069c-82ec-6db2-03f1-153e76fe0fe0">
    <mxGraphModel dx="1917" dy="1011" grid="0" gridSize="10" guides="1" tooltips="1" connect="1" arrows="1" fold="1" page="1" pageScale="1" pageWidth="1100" pageHeight="850" background="none" math="0" shadow="0">
      <root>
        <mxCell id="0" />
        <mxCell id="1" parent="0" />
        <mxCell id="0kMCaBdEUfDlAjtX0c9O-1" value="&lt;font style=&quot;font-size: 16px&quot;&gt;校园跳蚤市场&lt;/font&gt;" style="rounded=0;whiteSpace=wrap;html=1;" vertex="1" parent="1">
          <mxGeometry x="363" y="75" width="120" height="60" as="geometry" />
        </mxCell>
        <mxCell id="0kMCaBdEUfDlAjtX0c9O-2" value="管理部门" style="rounded=0;whiteSpace=wrap;html=1;fontSize=14;" vertex="1" parent="1">
          <mxGeometry x="85" y="192" width="120" height="60" as="geometry" />
        </mxCell>
        <mxCell id="0kMCaBdEUfDlAjtX0c9O-3" value="运维部门" style="rounded=0;whiteSpace=wrap;html=1;fontSize=14;" vertex="1" parent="1">
          <mxGeometry x="268" y="192" width="120" height="60" as="geometry" />
        </mxCell>
        <mxCell id="0kMCaBdEUfDlAjtX0c9O-4" value="开发部门" style="rounded=0;whiteSpace=wrap;html=1;fontSize=14;" vertex="1" parent="1">
          <mxGeometry x="455" y="192" width="120" height="60" as="geometry" />
        </mxCell>
        <mxCell id="0kMCaBdEUfDlAjtX0c9O-5" value="财务部门" style="rounded=0;whiteSpace=wrap;html=1;fontSize=14;" vertex="1" parent="1">
          <mxGeometry x="632" y="192" width="120" height="60" as="geometry" />
        </mxCell>
        <mxCell id="0kMCaBdEUfDlAjtX0c9O-6" value="商&lt;br style=&quot;font-size: 14px;&quot;&gt;品&lt;br style=&quot;font-size: 14px;&quot;&gt;管&lt;br style=&quot;font-size: 14px;&quot;&gt;理" style="rounded=0;whiteSpace=wrap;html=1;horizontal=1;flipV=0;fontSize=14;" vertex="1" parent="1">
          <mxGeometry x="102" y="305" width="40" height="130" as="geometry" />
        </mxCell>
        <mxCell id="0kMCaBdEUfDlAjtX0c9O-8" value="用&lt;br&gt;户&lt;br style=&quot;font-size: 14px&quot;&gt;管&lt;br style=&quot;font-size: 14px&quot;&gt;理" style="rounded=0;whiteSpace=wrap;html=1;horizontal=1;flipV=0;fontSize=14;" vertex="1" parent="1">
          <mxGeometry x="202" y="305" width="40" height="130" as="geometry" />
        </mxCell>
        <mxCell id="0kMCaBdEUfDlAjtX0c9O-9" value="商&lt;br&gt;品&lt;br&gt;审&lt;br&gt;核" style="rounded=0;whiteSpace=wrap;html=1;horizontal=1;flipV=0;fontSize=14;" vertex="1" parent="1">
          <mxGeometry x="152" y="305" width="40" height="130" as="geometry" />
        </mxCell>
        <mxCell id="0kMCaBdEUfDlAjtX0c9O-10" value="系&lt;br&gt;统&lt;br&gt;维&lt;br&gt;护" style="rounded=0;whiteSpace=wrap;html=1;horizontal=1;flipV=0;fontSize=14;" vertex="1" parent="1">
          <mxGeometry x="285" y="305" width="40" height="130" as="geometry" />
        </mxCell>
        <mxCell id="0kMCaBdEUfDlAjtX0c9O-11" value="系&lt;br&gt;统&lt;br&gt;优&lt;br&gt;化" style="rounded=0;whiteSpace=wrap;html=1;horizontal=1;flipV=0;fontSize=14;" vertex="1" parent="1">
          <mxGeometry x="335" y="305" width="40" height="130" as="geometry" />
        </mxCell>
        <mxCell id="0kMCaBdEUfDlAjtX0c9O-12" value="开&lt;br&gt;发&lt;br&gt;新&lt;br&gt;功&lt;br&gt;能" style="rounded=0;whiteSpace=wrap;html=1;horizontal=1;flipV=0;fontSize=14;" vertex="1" parent="1">
          <mxGeometry x="545" y="305" width="40" height="130" as="geometry" />
        </mxCell>
        <mxCell id="0kMCaBdEUfDlAjtX0c9O-13" value="财&lt;br&gt;务&lt;br&gt;管&lt;br&gt;理" style="rounded=0;whiteSpace=wrap;html=1;horizontal=1;flipV=0;fontSize=14;" vertex="1" parent="1">
          <mxGeometry x="647" y="305" width="40" height="130" as="geometry" />
        </mxCell>
        <mxCell id="0kMCaBdEUfDlAjtX0c9O-14" value="招&lt;br&gt;商&lt;br&gt;引&lt;br&gt;资" style="rounded=0;whiteSpace=wrap;html=1;horizontal=1;flipV=0;fontSize=14;" vertex="1" parent="1">
          <mxGeometry x="697" y="305" width="40" height="130" as="geometry" />
        </mxCell>
        <mxCell id="0kMCaBdEUfDlAjtX0c9O-15" value="人&lt;br&gt;事&lt;br&gt;管&lt;br&gt;理" style="rounded=0;whiteSpace=wrap;html=1;horizontal=1;flipV=0;fontSize=14;" vertex="1" parent="1">
          <mxGeometry x="55" y="305" width="40" height="130" as="geometry" />
        </mxCell>
        <mxCell id="0kMCaBdEUfDlAjtX0c9O-16" value="系&lt;br&gt;统&lt;br&gt;设&lt;br&gt;计" style="rounded=0;whiteSpace=wrap;html=1;horizontal=1;flipV=0;fontSize=14;" vertex="1" parent="1">
          <mxGeometry x="495" y="305" width="40" height="130" as="geometry" />
        </mxCell>
        <mxCell id="0kMCaBdEUfDlAjtX0c9O-17" value="市&lt;br&gt;场&lt;br&gt;调&lt;br&gt;研" style="rounded=0;whiteSpace=wrap;html=1;horizontal=1;flipV=0;fontSize=14;" vertex="1" parent="1">
          <mxGeometry x="443" y="305" width="40" height="130" as="geometry" />
        </mxCell>
        <mxCell id="0kMCaBdEUfDlAjtX0c9O-23" value="" style="endArrow=none;html=1;rounded=0;fontSize=16;elbow=vertical;exitX=0.5;exitY=0;exitDx=0;exitDy=0;entryX=0.5;entryY=1;entryDx=0;entryDy=0;edgeStyle=elbowEdgeStyle;" edge="1" parent="1" source="0kMCaBdEUfDlAjtX0c9O-2" target="0kMCaBdEUfDlAjtX0c9O-1">
          <mxGeometry width="50" height="50" relative="1" as="geometry">
            <mxPoint x="175" y="165" as="sourcePoint" />
            <mxPoint x="225" y="115" as="targetPoint" />
          </mxGeometry>
        </mxCell>
        <mxCell id="0kMCaBdEUfDlAjtX0c9O-24" value="" style="endArrow=none;html=1;rounded=0;fontSize=16;exitX=0.5;exitY=0;exitDx=0;exitDy=0;edgeStyle=elbowEdgeStyle;elbow=vertical;entryX=0.5;entryY=1;entryDx=0;entryDy=0;" edge="1" parent="1" source="0kMCaBdEUfDlAjtX0c9O-3" target="0kMCaBdEUfDlAjtX0c9O-1">
          <mxGeometry width="50" height="50" relative="1" as="geometry">
            <mxPoint x="575" y="175" as="sourcePoint" />
            <mxPoint x="425" y="135" as="targetPoint" />
          </mxGeometry>
        </mxCell>
        <mxCell id="0kMCaBdEUfDlAjtX0c9O-25" value="" style="endArrow=none;html=1;rounded=0;fontSize=16;elbow=vertical;exitX=0.5;exitY=1;exitDx=0;exitDy=0;entryX=0.5;entryY=0;entryDx=0;entryDy=0;edgeStyle=elbowEdgeStyle;" edge="1" parent="1" source="0kMCaBdEUfDlAjtX0c9O-1" target="0kMCaBdEUfDlAjtX0c9O-4">
          <mxGeometry width="50" height="50" relative="1" as="geometry">
            <mxPoint x="545" y="165" as="sourcePoint" />
            <mxPoint x="595" y="115" as="targetPoint" />
          </mxGeometry>
        </mxCell>
        <mxCell id="0kMCaBdEUfDlAjtX0c9O-26" value="" style="endArrow=none;html=1;rounded=0;fontSize=16;elbow=vertical;exitX=0.5;exitY=1;exitDx=0;exitDy=0;entryX=0.5;entryY=0;entryDx=0;entryDy=0;edgeStyle=elbowEdgeStyle;" edge="1" parent="1" source="0kMCaBdEUfDlAjtX0c9O-1" target="0kMCaBdEUfDlAjtX0c9O-5">
          <mxGeometry width="50" height="50" relative="1" as="geometry">
            <mxPoint x="625" y="175" as="sourcePoint" />
            <mxPoint x="675" y="125" as="targetPoint" />
          </mxGeometry>
        </mxCell>
        <mxCell id="0kMCaBdEUfDlAjtX0c9O-27" value="" style="endArrow=none;html=1;rounded=0;fontSize=16;elbow=vertical;entryX=0.5;entryY=1;entryDx=0;entryDy=0;exitX=0.5;exitY=0;exitDx=0;exitDy=0;edgeStyle=elbowEdgeStyle;" edge="1" parent="1" source="0kMCaBdEUfDlAjtX0c9O-15" target="0kMCaBdEUfDlAjtX0c9O-2">
          <mxGeometry width="50" height="50" relative="1" as="geometry">
            <mxPoint x="135" y="295" as="sourcePoint" />
            <mxPoint x="185" y="245" as="targetPoint" />
          </mxGeometry>
        </mxCell>
        <mxCell id="0kMCaBdEUfDlAjtX0c9O-28" value="" style="endArrow=none;html=1;rounded=0;fontSize=16;elbow=vertical;entryX=0.5;entryY=1;entryDx=0;entryDy=0;exitX=0.5;exitY=0;exitDx=0;exitDy=0;edgeStyle=elbowEdgeStyle;" edge="1" parent="1" source="0kMCaBdEUfDlAjtX0c9O-6" target="0kMCaBdEUfDlAjtX0c9O-2">
          <mxGeometry width="50" height="50" relative="1" as="geometry">
            <mxPoint x="165" y="315" as="sourcePoint" />
            <mxPoint x="215" y="265" as="targetPoint" />
          </mxGeometry>
        </mxCell>
        <mxCell id="0kMCaBdEUfDlAjtX0c9O-29" value="" style="endArrow=none;html=1;rounded=0;fontSize=16;elbow=vertical;entryX=0.5;entryY=1;entryDx=0;entryDy=0;exitX=0.5;exitY=0;exitDx=0;exitDy=0;edgeStyle=elbowEdgeStyle;" edge="1" parent="1" source="0kMCaBdEUfDlAjtX0c9O-9" target="0kMCaBdEUfDlAjtX0c9O-2">
          <mxGeometry width="50" height="50" relative="1" as="geometry">
            <mxPoint x="155" y="315" as="sourcePoint" />
            <mxPoint x="205" y="265" as="targetPoint" />
          </mxGeometry>
        </mxCell>
        <mxCell id="0kMCaBdEUfDlAjtX0c9O-30" value="" style="endArrow=none;html=1;rounded=0;fontSize=16;elbow=vertical;entryX=0.5;entryY=1;entryDx=0;entryDy=0;exitX=0.5;exitY=0;exitDx=0;exitDy=0;edgeStyle=elbowEdgeStyle;" edge="1" parent="1" source="0kMCaBdEUfDlAjtX0c9O-8" target="0kMCaBdEUfDlAjtX0c9O-2">
          <mxGeometry width="50" height="50" relative="1" as="geometry">
            <mxPoint x="195" y="305" as="sourcePoint" />
            <mxPoint x="245" y="255" as="targetPoint" />
          </mxGeometry>
        </mxCell>
        <mxCell id="0kMCaBdEUfDlAjtX0c9O-31" value="" style="endArrow=none;html=1;rounded=0;fontSize=16;elbow=vertical;entryX=0.5;entryY=1;entryDx=0;entryDy=0;exitX=0.5;exitY=0;exitDx=0;exitDy=0;edgeStyle=elbowEdgeStyle;" edge="1" parent="1" source="0kMCaBdEUfDlAjtX0c9O-10" target="0kMCaBdEUfDlAjtX0c9O-3">
          <mxGeometry width="50" height="50" relative="1" as="geometry">
            <mxPoint x="265" y="305" as="sourcePoint" />
            <mxPoint x="315" y="255" as="targetPoint" />
          </mxGeometry>
        </mxCell>
        <mxCell id="0kMCaBdEUfDlAjtX0c9O-32" value="" style="endArrow=none;html=1;rounded=0;fontSize=16;elbow=vertical;exitX=0.5;exitY=1;exitDx=0;exitDy=0;entryX=0.5;entryY=0;entryDx=0;entryDy=0;edgeStyle=elbowEdgeStyle;" edge="1" parent="1" source="0kMCaBdEUfDlAjtX0c9O-4" target="0kMCaBdEUfDlAjtX0c9O-17">
          <mxGeometry width="50" height="50" relative="1" as="geometry">
            <mxPoint x="405" y="355" as="sourcePoint" />
            <mxPoint x="455" y="305" as="targetPoint" />
          </mxGeometry>
        </mxCell>
        <mxCell id="0kMCaBdEUfDlAjtX0c9O-33" value="" style="endArrow=none;html=1;rounded=0;fontSize=16;elbow=vertical;exitX=0.5;exitY=1;exitDx=0;exitDy=0;entryX=0.5;entryY=0;entryDx=0;entryDy=0;edgeStyle=elbowEdgeStyle;" edge="1" parent="1" source="0kMCaBdEUfDlAjtX0c9O-3" target="0kMCaBdEUfDlAjtX0c9O-11">
          <mxGeometry width="50" height="50" relative="1" as="geometry">
            <mxPoint x="405" y="355" as="sourcePoint" />
            <mxPoint x="455" y="305" as="targetPoint" />
          </mxGeometry>
        </mxCell>
        <mxCell id="0kMCaBdEUfDlAjtX0c9O-34" value="" style="endArrow=none;html=1;rounded=0;fontSize=16;elbow=vertical;exitX=0.5;exitY=1;exitDx=0;exitDy=0;entryX=0.5;entryY=0;entryDx=0;entryDy=0;edgeStyle=elbowEdgeStyle;" edge="1" parent="1" source="0kMCaBdEUfDlAjtX0c9O-4" target="0kMCaBdEUfDlAjtX0c9O-12">
          <mxGeometry width="50" height="50" relative="1" as="geometry">
            <mxPoint x="405" y="355" as="sourcePoint" />
            <mxPoint x="455" y="305" as="targetPoint" />
          </mxGeometry>
        </mxCell>
        <mxCell id="0kMCaBdEUfDlAjtX0c9O-35" value="" style="endArrow=none;html=1;rounded=0;fontSize=16;elbow=vertical;exitX=0.5;exitY=1;exitDx=0;exitDy=0;entryX=0.5;entryY=0;entryDx=0;entryDy=0;edgeStyle=elbowEdgeStyle;" edge="1" parent="1" source="0kMCaBdEUfDlAjtX0c9O-4" target="0kMCaBdEUfDlAjtX0c9O-16">
          <mxGeometry width="50" height="50" relative="1" as="geometry">
            <mxPoint x="405" y="355" as="sourcePoint" />
            <mxPoint x="455" y="305" as="targetPoint" />
          </mxGeometry>
        </mxCell>
        <mxCell id="0kMCaBdEUfDlAjtX0c9O-36" value="" style="endArrow=none;html=1;rounded=0;fontSize=16;elbow=vertical;entryX=0.5;entryY=1;entryDx=0;entryDy=0;exitX=0.5;exitY=0;exitDx=0;exitDy=0;edgeStyle=elbowEdgeStyle;" edge="1" parent="1" source="0kMCaBdEUfDlAjtX0c9O-13" target="0kMCaBdEUfDlAjtX0c9O-5">
          <mxGeometry width="50" height="50" relative="1" as="geometry">
            <mxPoint x="615" y="315" as="sourcePoint" />
            <mxPoint x="665" y="265" as="targetPoint" />
          </mxGeometry>
        </mxCell>
        <mxCell id="0kMCaBdEUfDlAjtX0c9O-38" value="" style="endArrow=none;html=1;rounded=0;fontSize=16;elbow=vertical;entryX=0.5;entryY=1;entryDx=0;entryDy=0;exitX=0.5;exitY=0;exitDx=0;exitDy=0;edgeStyle=elbowEdgeStyle;" edge="1" parent="1" source="0kMCaBdEUfDlAjtX0c9O-14" target="0kMCaBdEUfDlAjtX0c9O-5">
          <mxGeometry width="50" height="50" relative="1" as="geometry">
            <mxPoint x="811" y="325" as="sourcePoint" />
            <mxPoint x="861" y="275" as="targetPoint" />
          </mxGeometry>
        </mxCell>
      </root>
    </mxGraphModel>
  </diagram>
  <diagram id="REALeJmJKpvrVm4reRhh" name="第 2 页">
    <mxGraphModel dx="1466" dy="773" grid="0" gridSize="10" guides="1" tooltips="1" connect="1" arrows="1" fold="1" page="1" pageScale="1" pageWidth="1169" pageHeight="827" math="0" shadow="0">
      <root>
        <mxCell id="0" />
        <mxCell id="1" parent="0" />
      </root>
    </mxGraphModel>
  </diagram>
</mxfile>
